<svg width="224.33625488281248px" height="122.00003662109374px" xmlns="http://www.w3.org/2000/svg" viewBox="137.83187255859377 13.99998168945313 224.33625488281248 122.00003662109374" style="background: rgba(0, 0, 0, 0);" preserveAspectRatio="xMidYMid"><defs><filter id="editing-jagged" x="-100%" y="-100%" width="300%" height="300%"><feTurbulence result="turb" baseFrequency="0.1" numOctaves="1" seed="1"></feTurbulence><feDisplacementMap in="SourceGraphic" in2="turb" scale="10"></feDisplacementMap></filter></defs><g filter="url(#editing-jagged)"><g transform="translate(174.19346678256989, 97.39999961853027)"><path d="M34.50-13.25L34.50-13.25L34.50-13.25Q36.16-12.03 36.16-9.44L36.16-9.44L36.16-9.44Q36.16-6.85 35.04-5.02L35.04-5.02L35.04-5.02Q33.92-3.20 31.74-1.79L31.74-1.79L31.74-1.79Q27.07 1.22 18.91 1.22L18.91 1.22L18.91 1.22Q10.75 1.22 6.30-3.04L6.30-3.04L6.30-3.04Q1.86-7.30 1.86-14.85L1.86-14.85L1.86-14.85Q1.86-25.54 7.42-33.66L7.42-33.66L7.42-33.66Q11.65-39.68 19.20-42.24L19.20-42.24L19.20-42.24Q23.10-43.52 26.94-43.52L26.94-43.52L26.94-43.52Q30.78-43.52 33.15-43.01L33.15-43.01L33.15-43.01Q35.52-42.50 37.31-41.47L37.31-41.47L37.31-41.47Q41.22-39.23 41.22-35.65L41.22-35.65L41.22-35.65Q41.22-32.38 38.14-29.95L38.14-29.95L38.14-29.95Q35.33-27.78 33.02-27.78L33.02-27.78L33.02-27.78Q30.72-27.78 29.76-28.10L29.76-28.10L29.76-28.10Q30.02-30.40 30.02-31.90L30.02-31.90L30.02-31.90Q30.02-33.41 29.95-34.50L29.95-34.50L29.95-34.50Q29.89-35.58 29.57-36.61L29.57-36.61L29.57-36.61Q28.93-38.98 26.98-38.98L26.98-38.98L26.98-38.98Q25.02-38.98 23.07-37.15L23.07-37.15L23.07-37.15Q21.12-35.33 19.46-32.26L19.46-32.26L19.46-32.26Q15.68-25.28 15.68-17.02L15.68-17.02L15.68-17.02Q15.68-13.06 17.92-10.78L17.92-10.78L17.92-10.78Q20.16-8.51 24.96-8.51L24.96-8.51L24.96-8.51Q28.54-8.51 31.94-10.88L31.94-10.88L31.94-10.88Q33.41-11.90 34.50-13.25ZM44.26-1.92L44.26-1.92L44.26-1.92Q42.75-3.58 42.08-6.21L42.08-6.21L42.08-6.21Q41.41-8.83 41.41-13.12L41.41-13.12L41.41-13.12Q41.41-17.41 42.88-21.31L42.88-21.31L42.88-21.31Q44.35-25.22 47.04-28.03L47.04-28.03L47.04-28.03Q52.54-33.92 61.63-33.92L61.63-33.92L61.63-33.92Q64.90-33.92 67.26-32.83L67.26-32.83L78.21-33.92L73.47-8.96L73.47-8.96Q73.28-8.19 73.28-6.78L73.28-6.78L73.28-6.78Q73.28-5.38 74.14-4.48L74.14-4.48L74.14-4.48Q75.01-3.58 76.29-3.46L76.29-3.46L76.29-3.46Q75.65-1.28 73.31 0L73.31 0L73.31 0Q70.98 1.28 68.35 1.28L68.35 1.28L68.35 1.28Q65.73 1.28 63.97 0.29L63.97 0.29L63.97 0.29Q62.21-0.70 61.70-2.37L61.70-2.37L61.70-2.37Q60.67-0.77 58.50 0.26L58.50 0.26L58.50 0.26Q56.32 1.28 53.41 1.28L53.41 1.28L53.41 1.28Q50.50 1.28 48.13 0.51L48.13 0.51L48.13 0.51Q45.76-0.26 44.26-1.92ZM57.76-27.90L57.76-27.90L57.76-27.90Q57.02-26.75 56.38-24.80L56.38-24.80L56.38-24.80Q55.74-22.85 54.69-17.63L54.69-17.63L54.69-17.63Q53.63-12.42 53.63-8.70L53.63-8.70L53.63-8.70Q53.63-4.99 54.21-3.90L54.21-3.90L54.21-3.90Q54.78-2.82 55.81-2.82L55.81-2.82L55.81-2.82Q57.86-2.82 59.36-4.77L59.36-4.77L59.36-4.77Q60.86-6.72 61.44-10.18L61.44-10.18L64.83-28.93L64.83-28.93Q63.49-30.08 61.92-30.08L61.92-30.08L61.92-30.08Q60.35-30.08 59.42-29.57L59.42-29.57L59.42-29.57Q58.50-29.06 57.76-27.90ZM101.70-17.98L101.70-17.98L101.70-17.98Q104-22.08 104-26.24L104-26.24L104-26.24Q104-28.99 102.02-28.99L102.02-28.99L102.02-28.99Q100.48-28.99 98.88-26.37L98.88-26.37L98.88-26.37Q97.22-23.74 96.70-20.35L96.70-20.35L93.38 0L80.13 1.28L86.66-32.64L97.22-33.92L96.06-27.46L96.06-27.46Q99.20-33.92 106.24-33.92L106.24-33.92L106.24-33.92Q109.95-33.92 111.97-32L111.97-32L111.97-32Q113.98-30.08 113.98-26.14L113.98-26.14L113.98-26.14Q113.98-22.21 111.39-19.71L111.39-19.71L111.39-19.71Q108.80-17.22 104.38-17.22L104.38-17.22L104.38-17.22Q102.46-17.22 101.70-17.98ZM127.84 0.16L127.84 0.16L127.84 0.16Q124.42-0.45 122.62-0.70L122.62-0.70L122.62-0.70Q120.83-0.96 118.94-0.96L118.94-0.96L118.94-0.96Q117.06-0.96 116.10 0L116.10 0L116.10 0Q114.62-1.09 113.86-4.54L113.86-4.54L113.86-4.54Q113.60-5.50 113.60-7.10L113.60-7.10L113.60-7.10Q113.60-10.56 117.57-13.95L117.57-13.95L137.54-30.34L137.54-30.34Q129.28-31.68 125.95-31.68L125.95-31.68L125.95-31.68Q122.62-31.68 119.55-30.21L119.55-30.21L119.55-30.21Q117.82-33.02 117.82-36.29L117.82-36.29L117.82-36.29Q117.82-39.55 120.22-41.22L120.22-41.22L120.22-41.22Q122.62-42.88 126.66-42.88L126.66-42.88L126.66-42.88Q128.45-42.88 130.37-42.62L130.37-42.62L130.37-42.62Q132.29-42.37 134.21-42.11L134.21-42.11L137.98-41.54L137.98-41.54Q139.84-41.28 142.24-41.28L142.24-41.28L142.24-41.28Q144.64-41.28 147.33-41.92L147.33-41.92L147.33-41.92Q149.89-39.68 149.89-35.97L149.89-35.97L149.89-35.97Q149.89-31.49 146.82-29.06L146.82-29.06L125.06-11.65L125.06-11.65Q129.73-10.37 137.47-10.37L137.47-10.37L137.47-10.37Q141.31-10.37 143.74-12.29L143.74-12.29L143.74-12.29Q144.83-10.88 145.12-9.70L145.12-9.70L145.12-9.70Q145.41-8.51 145.41-6.82L145.41-6.82L145.41-6.82Q145.41-5.12 144.83-3.74L144.83-3.74L144.83-3.74Q144.26-2.37 143.04-1.34L143.04-1.34L143.04-1.34Q140.61 0.77 135.23 0.77L135.23 0.77L135.23 0.77Q131.26 0.77 127.84 0.16Z" fill="#444"></path></g></g><style>text {
  font-size: 64px;
  font-family: Arial Black;
  dominant-baseline: central;
  text-anchor: middle;
}</style></svg>